<svg width="1043" height="952" viewBox="0 0 1043 952" fill="none" xmlns="http://www.w3.org/2000/svg">
<path d="M307.6 784.6C313.2 784.6 318.267 785.533 322.8 787.4C327.467 789.267 331.4 791.933 334.6 795.4C337.933 798.867 340.467 803.067 342.2 808C344.067 812.933 345 818.467 345 824.6V887H331.8V824.6C331.8 815.8 329.533 809.067 325 804.4C320.6 799.733 314.733 797.4 307.4 797.4C299 797.4 292.267 800.2 287.2 805.8C282.133 811.267 279.6 819.867 279.6 831.6V887H266.4V824.6C266.4 815.8 264.267 809.067 260 804.4C255.867 799.733 250.2 797.4 243 797.4C239 797.4 235.2 798.133 231.6 799.6C228.133 800.933 225.067 803 222.4 805.8C219.867 808.6 217.867 812.2 216.4 816.6C214.933 820.867 214.2 825.867 214.2 831.6V887H201V787H214.2V801.6C221.4 790.267 231.6 784.6 244.8 784.6C259.333 784.6 269.467 790.667 275.2 802.8C282.4 790.667 293.2 784.6 307.6 784.6ZM451.931 763C450.065 764.867 447.798 765.8 445.131 765.8C442.465 765.8 440.198 764.867 438.331 763C436.465 761.133 435.531 758.867 435.531 756.2C435.531 753.533 436.465 751.267 438.331 749.4C440.198 747.533 442.465 746.6 445.131 746.6C447.798 746.6 450.065 747.533 451.931 749.4C453.798 751.267 454.731 753.533 454.731 756.2C454.731 758.867 453.798 761.133 451.931 763ZM438.531 887V787H451.731V887H438.531ZM600.742 799.8H571.942V860.4C571.942 864.667 572.542 867.933 573.742 870.2C574.942 872.333 576.742 873.867 579.142 874.8C581.542 875.6 584.542 876 588.142 876C591.742 875.867 595.942 875.667 600.742 875.4V887C586.742 889.133 576.209 888.133 569.142 884C562.209 879.867 558.742 872 558.742 860.4V799.8H537.742V787H558.742V763L571.942 759V787H600.742V799.8ZM737.688 799.8H708.888V860.4C708.888 864.667 709.488 867.933 710.688 870.2C711.888 872.333 713.688 873.867 716.088 874.8C718.488 875.6 721.488 876 725.088 876C728.688 875.867 732.888 875.667 737.688 875.4V887C723.688 889.133 713.154 888.133 706.088 884C699.154 879.867 695.688 872 695.688 860.4V799.8H674.688V787H695.688V763L708.888 759V787H737.688V799.8ZM841.088 763C839.221 764.867 836.954 765.8 834.288 765.8C831.621 765.8 829.354 764.867 827.488 763C825.621 761.133 824.688 758.867 824.688 756.2C824.688 753.533 825.621 751.267 827.488 749.4C829.354 747.533 831.621 746.6 834.288 746.6C836.954 746.6 839.221 747.533 841.088 749.4C842.954 751.267 843.888 753.533 843.888 756.2C843.888 758.867 842.954 761.133 841.088 763ZM827.688 887V787H840.888V887H827.688Z" fill="white"/>
<circle cx="115.5" cy="545.933" r="115.5" fill="white"/>
<rect x="181.891" y="119.676" width="230.691" height="622.571" rx="111" transform="rotate(-25 181.891 119.676)" fill="white"/>
<rect x="570.813" y="97.4943" width="230.691" height="622.571" rx="111" transform="rotate(-25 570.813 97.4943)" fill="white"/>
</svg>
